Coordinates
version=1
nRows=30
nColumns=38
inDegrees=no

Units are S.I. units (second, meters, Newtons, ...)
If the header above contains a line with 'inDegrees', this indicates whether rotational values are in degrees (yes) or radians (no).

endheader
time	pelvis_tilt	pelvis_list	pelvis_rotation	pelvis_tx	pelvis_ty	pelvis_tz	hip_flexion_r	hip_adduction_r	hip_rotation_r	knee_angle_r	ankle_angle_r	subtalar_angle_r	mtp_angle_r	hip_flexion_l	hip_adduction_l	hip_rotation_l	knee_angle_l	ankle_angle_l	subtalar_angle_l	mtp_angle_l	lumbar_extension	lumbar_bending	lumbar_rotation	arm_flex_r	arm_add_r	arm_rot_r	elbow_flex_r	pro_sup_r	wrist_flex_r	wrist_dev_r	arm_flex_l	arm_add_l	arm_rot_l	elbow_flex_l	pro_sup_l	wrist_flex_l	wrist_dev_l
0.03	-0.10173	0.0670382	0.0336202	0.778004	1.0852	-0.31535	0.264974	-0.209384	-0.19114	-2.29784	-0.0424927	0.1	-0.00304403	0.607096	0.122951	-0.252817	-0.820135	0.555556	0.1	-0.0055616	-0.224939	-0.120834	0.0173482	-0.560385	-0.532289	-0.173607	1.79833	1.68203	-5.66263e-06	-0.0173684	-0.415895	-0.508228	-0.214888	1.87795	2.09066	-0.00482724	-0.00281183
0.04	-0.0936252	0.0695384	0.0363632	0.774515	1.08253	-0.31459	0.368554	-0.204462	-0.16924	-2.36091	-0.00776226	0.1	-0.00304403	0.554288	0.122342	-0.242831	-0.847903	0.651527	0.1	-0.0055616	-0.244878	-0.120522	-0.00512712	-0.59315	-0.508495	-0.182077	1.74637	1.65959	-5.66263e-06	-0.0173684	-0.344437	-0.529581	-0.201252	1.85447	2.11063	-0.00482724	-0.00281183
0.05	-0.0881157	0.0672518	0.0400013	0.771608	1.07997	-0.313925	0.468487	-0.196196	-0.153377	-2.40125	0.0246372	0.1	-0.00304403	0.499915	0.115624	-0.235358	-0.864527	0.730275	0.1	-0.0055616	-0.259518	-0.114784	-0.0271	-0.627775	-0.486904	-0.19107	1.70615	1.64131	-5.66263e-06	-0.0173684	-0.277305	-0.548008	-0.187979	1.8408	2.12436	-0.00482724	-0.00281183
0.06	-0.0851607	0.060302	0.0445693	0.769349	1.07778	-0.313276	0.56461	-0.1848	-0.1435	-2.41898	0.0547867	0.1	-0.00304403	0.443926	0.102963	-0.230445	-0.869937	0.791345	0.1	-0.0055616	-0.268906	-0.103764	-0.0486057	-0.664206	-0.467476	-0.20056	1.67752	1.62716	-5.66263e-06	-0.0173684	-0.214482	-0.563562	-0.174973	1.83682	2.1318	-0.00482724	-0.00281183
0.07	-0.0846413	0.0490848	0.0501153	0.7678	1.07609	-0.312682	0.656444	-0.17084	-0.139384	-2.41451	0.0828922	0.1	-0.00304403	0.386196	0.0848575	-0.228194	-0.863975	0.833448	0.1	-0.0055616	-0.273206	-0.0878814	-0.0697008	-0.702276	-0.450094	-0.21046	1.65996	1.617	-5.66263e-06	-0.0173684	-0.155922	-0.576363	-0.161981	1.84224	2.13291	-0.00482724	-0.00281183
0.08	-0.0863491	0.0342861	0.0566193	0.766993	1.07502	-0.312179	0.743156	-0.155184	-0.140524	-2.38866	0.109293	0.1	-0.00304403	0.326544	0.0621506	-0.22886	-0.846516	0.854546	0.1	-0.0055616	-0.272752	-0.0678771	-0.0903754	-0.741657	-0.434543	-0.22061	1.65246	1.61038	-5.66263e-06	-0.0173684	-0.101546	-0.586591	-0.148595	1.85655	2.12776	-0.00482724	-0.00281183
0.09	-0.0899878	0.0167768	0.0638826	0.766923	1.07462	-0.311746	0.823647	-0.138764	-0.146093	-2.3426	0.134419	0.1	-0.00304403	0.264856	0.0359623	-0.232827	-0.817649	0.852214	0.1	-0.0055616	-0.268044	-0.0447718	-0.110448	-0.781852	-0.42054	-0.230773	1.65362	1.60645	-5.66263e-06	-0.0173684	-0.0512647	-0.594453	-0.13433	1.87897	2.11681	-0.00482724	-0.00281183
0.1	-0.0952415	-0.00246715	0.071451	0.767552	1.07491	-0.311352	0.896702	-0.122302	-0.154998	-2.27778	0.158726	0.1	-0.00304403	0.201231	0.00755027	-0.24051	-0.777914	0.82427	0.1	-0.0055616	-0.259716	-0.019729	-0.129504	-0.822198	-0.40779	-0.240662	1.66172	1.60402	-5.66263e-06	-0.0173684	-0.00502265	-0.600165	-0.118769	1.90859	2.10101	-0.00482724	-0.00281183
0.11	-0.101796	-0.0224716	0.0786274	0.768812	1.07584	-0.310956	0.961154	-0.106155	-0.166028	-2.19577	0.182675	0.1	-0.00304403	0.136138	-0.0218619	-0.252337	-0.728587	0.769596	0.1	-0.0055616	-0.248472	0.00605858	-0.14693	-0.861894	-0.396061	-0.249971	1.67493	1.60177	-5.66263e-06	-0.0173684	0.0371443	-0.603927	-0.101695	1.94437	2.08198	-0.00482724	-0.00281183
0.12	-0.109374	-0.0423111	0.0845867	0.770608	1.0773	-0.310511	1.01599	-0.090363	-0.178039	-2.09816	0.206738	0.1	-0.00304403	0.07052	-0.051127	-0.268496	-0.671909	0.688824	0.1	-0.0055616	-0.235057	0.0314372	-0.162046	-0.90003	-0.385225	-0.258416	1.6915	1.59855	-5.66263e-06	-0.0173684	0.0750841	-0.605929	-0.0831837	1.98516	2.06184	-0.00482724	-0.00281183
0.13	-0.117719	-0.0610962	0.0885736	0.772836	1.07912	-0.309968	1.06037	-0.0748583	-0.190141	-1.98645	0.231414	0.1	-0.00304403	0.00581345	-0.0791207	-0.2885	-0.611225	0.584769	0.1	-0.0055616	-0.220244	0.0553217	-0.174292	-0.935632	-0.375272	-0.265773	1.70989	1.59368	-5.66263e-06	-0.0173684	0.108549	-0.606351	-0.0635781	2.02962	2.04301	-0.00482724	-0.00281183
0.14	-0.126561	-0.0779413	0.0901235	0.775381	1.08106	-0.309295	1.09366	-0.0597331	-0.201854	-1.86214	0.257268	0.1	-0.00304403	-0.0561256	-0.104656	-0.310756	-0.550949	0.462462	0.1	-0.0055616	-0.20483	0.0767057	-0.183401	-0.967732	-0.366263	-0.271907	1.72885	1.58713	-5.66263e-06	-0.0173684	0.137256	-0.60538	-0.0433818	2.07619	2.02775	-0.00482724	-0.00281183
0.15	-0.135575	-0.0919627	0.0892276	0.778092	1.08287	-0.308502	1.11539	-0.0454246	-0.213185	-1.72689	0.284873	0.1	-0.00304403	-0.113191	-0.126486	-0.332446	-0.496343	0.328889	0.1	-0.0055616	-0.189631	0.0946809	-0.189489	-0.995436	-0.358264	-0.276789	1.74739	1.57945	-5.66263e-06	-0.0173684	0.16096	-0.603203	-0.0231107	2.12303	2.01784	-0.00482724	-0.00281183
0.16	-0.144362	-0.102318	0.0863759	0.780795	1.08434	-0.307662	1.12529	-0.0327434	-0.224608	-1.58271	0.314638	0.1	-0.00304403	-0.163285	-0.143378	-0.349789	-0.453035	0.192337	0.1	-0.0055616	-0.175468	0.108478	-0.193035	-1.018	-0.351292	-0.280479	1.76477	1.57166	-5.66263e-06	-0.0173684	0.179489	-0.600016	-0.0031848	2.16807	2.01431	-0.00482724	-0.00281183
0.17	-0.152426	-0.108297	0.0824525	0.783352	1.08533	-0.306903	1.12336	-0.0227222	-0.236924	-1.4322	0.346514	0.1	-0.00304403	-0.204603	-0.1543	-0.358763	-0.4264	0.0615498	0.1	-0.0055616	-0.163122	0.117536	-0.194744	-1.03487	-0.345303	-0.283105	1.78051	1.56485	-5.66263e-06	-0.0173684	0.192737	-0.596016	0.0161098	2.20911	2.01738	-0.00482724	-0.00281183
0.18	-0.159205	-0.109453	0.078509	0.785704	1.08576	-0.306373	1.10999	-0.0163467	-0.251044	-1.27874	0.379678	0.1	-0.00304403	-0.235906	-0.158629	-0.356108	-0.420876	-0.0553606	0.1	-0.0055616	-0.153286	0.121585	-0.19533	-1.04576	-0.340228	-0.284816	1.79427	1.55993	-5.66263e-06	-0.0173684	0.2006	-0.591418	0.0345965	2.24401	2.02656	-0.00482724	-0.00281183
0.19	-0.164127	-0.105756	0.0754865	0.787863	1.08557	-0.306198	1.08601	-0.0142656	-0.267746	-1.12658	0.41238	0.1	-0.00304403	-0.256698	-0.15636	-0.340304	-0.439404	-0.152009	0.1	-0.0055616	-0.146492	0.120729	-0.195291	-1.0506	-0.33606	-0.285758	1.80593	1.55732	-5.66263e-06	-0.0173684	0.202924	-0.58647	0.0521566	2.27091	2.04073	-0.00482724	-0.00281183
0.2	-0.166678	-0.0976622	0.0739529	0.789893	1.08475	-0.306436	1.05276	-0.0165333	-0.28741	-0.980666	0.441984	0.1	-0.00304403	-0.26726	-0.148255	-0.312223	-0.483081	-0.224687	0.1	-0.0055616	-0.143027	0.115526	-0.194727	-1.04964	-0.332947	-0.28606	1.81553	1.55687	-5.66263e-06	-0.0173684	0.199481	-0.581441	0.0686765	2.28842	2.0583	-0.00482724	-0.00281183
0.21	-0.166536	-0.0861738	0.0739384	0.791883	1.08325	-0.307034	1.01214	-0.0224563	-0.309777	-0.846417	0.46527	0.1	-0.00304403	-0.268546	-0.135859	-0.275142	-0.551082	-0.272875	0.1	-0.0055616	-0.142884	0.106994	-0.19325	-1.04333	-0.331263	-0.28583	1.82331	1.5579	-5.66263e-06	-0.0173684	0.19	-0.576596	0.0840064	2.29575	2.07738	-0.00482724	-0.00281183
0.22	-0.163631	-0.0727577	0.0748946	0.793917	1.08101	-0.307824	0.966454	-0.0306034	-0.333816	-0.729176	0.479018	0.1	-0.00304403	-0.261931	-0.121367	-0.234054	-0.640878	-0.298999	0.1	-0.0055616	-0.145727	0.0965442	-0.190006	-1.03229	-0.331623	-0.28515	1.82961	1.55936	-5.66263e-06	-0.0173684	0.17426	-0.57214	0.0979311	2.29276	2.09601	-0.00482724	-0.00281183
0.23	-0.158205	-0.0591958	0.0757955	0.796032	1.07797	-0.308579	0.918311	-0.0389697	-0.357733	-0.633671	0.480719	0.1	-0.00304403	-0.248886	-0.107372	-0.194602	-0.748698	-0.307475	0.1	-0.0055616	-0.150947	0.0858383	-0.183822	-1.01711	-0.334821	-0.284036	1.83479	1.56012	-5.66263e-06	-0.0173684	0.152203	-0.56817	0.110163	2.27988	2.11239	-0.00482724	-0.00281183
0.24	-0.150756	-0.0473288	0.0753561	0.798213	1.07404	-0.309068	0.870359	-0.0452816	-0.379189	-0.563495	0.469355	0.1	-0.00304403	-0.230664	-0.096512	-0.161876	-0.870108	-0.303349	0.1	-0.0055616	-0.157768	0.0765928	-0.173425	-0.998207	-0.341717	-0.282384	1.83908	1.55917	-5.66263e-06	-0.0173684	0.124043	-0.564641	0.120354	2.2581	2.12514	-0.00482724	-0.00281183
0.25	-0.141952	-0.0388256	0.0723239	0.800393	1.06914	-0.309112	0.825019	-0.047391	-0.395707	-0.520762	0.446111	0.1	-0.00304403	-0.208062	-0.0910587	-0.139403	-1.00055	-0.291085	0.1	-0.0055616	-0.165427	0.0703442	-0.15772	-0.975668	-0.353079	-0.279911	1.84245	1.55594	-5.66263e-06	-0.0173684	0.0903163	-0.561356	0.128122	2.22878	2.13352	-0.00482724	-0.00281183
0.26	-0.132522	-0.0349552	0.065759	0.80246	1.06324	-0.308617	0.78419	-0.0436657	-0.405173	-0.505948	0.414843	0.1	-0.00304403	-0.181293	-0.0925405	-0.128577	-1.13576	-0.273878	0.1	-0.0055616	-0.17334	0.0682424	-0.136046	-0.94912	-0.369435	-0.276116	1.84454	1.55033	-5.66263e-06	-0.0173684	0.0518734	-0.557968	0.133067	2.19356	2.13764	-0.00482724	-0.00281183
0.27	-0.123136	-0.0364146	0.0552499	0.804273	1.0564	-0.307588	0.74894	-0.0332621	-0.406224	-0.51776	0.38197	0.1	-0.00304403	-0.149961	-0.101482	-0.128612	-1.272	-0.253604	0.1	-0.0055616	-0.1812	0.070894	-0.108376	-0.917752	-0.390957	-0.270288	1.8447	1.54279	-5.66263e-06	-0.0173684	0.00978858	-0.554006	0.134779	2.15419	2.13851	-0.00482724	-0.00281183
0.28	-0.114331	-0.0432158	0.0410372	0.805695	1.04893	-0.306131	0.719232	-0.016263	-0.398506	-0.553011	0.355538	0.1	-0.00304403	-0.113153	-0.117287	-0.136935	-1.40612	-0.231151	0.1	-0.0055616	-0.188972	0.0782758	-0.0754251	-0.880458	-0.417389	-0.261573	1.84216	1.53418	-5.66263e-06	-0.0173684	-0.0347728	-0.548936	0.132845	2.11243	2.13803	-0.00482724	-0.00281183
0.29	-0.106448	-0.0546592	0.0240425	0.80662	1.04151	-0.304422	0.693755	0.00631447	-0.382737	-0.606501	0.343363	0.1	-0.00304403	-0.0696275	-0.13824	-0.149813	-1.53544	-0.206814	0.1	-0.0055616	-0.196773	0.0897034	-0.0386675	-0.836093	-0.448031	-0.249097	1.83627	1.52551	-5.66263e-06	-0.0173684	-0.0807103	-0.542255	0.126877	2.06995	2.13877	-0.00482724	-0.00281183
0.3	-0.0996901	-0.0693852	0.00579727	0.806961	1.03488	-0.302634	0.669993	0.0326385	-0.360459	-0.67115	0.350853	0.1	-0.00304403	-0.0180765	-0.161657	-0.163126	-1.65758	-0.180544	0.1	-0.0055616	-0.204716	0.103863	-0.000242045	-0.78382	-0.481776	-0.23216	1.82677	1.51764	-5.66263e-06	-0.0173684	-0.12712	-0.533611	0.116562	2.02822	2.14358	-0.00482724	-0.00281183
0.31	-0.0941747	-0.0854719	-0.0117336	0.80665	1.02929	-0.300921	0.644668	0.0601982	-0.333896	-0.738745	0.379563	0.1	-0.00304403	0.0425781	-0.184182	-0.173142	-1.77033	-0.152061	0.1	-0.0055616	-0.212732	0.118933	0.0372784	-0.723464	-0.517182	-0.210461	1.81407	1.51106	-5.66263e-06	-0.0173684	-0.17336	-0.522927	0.101759	1.98855	2.15512	-0.00482724	-0.00281183
0.32	-0.0899983	-0.100646	-0.0264494	0.805672	1.02458	-0.299503	0.61442	0.0860379	-0.305752	-0.80111	0.427025	0.1	-0.00304403	0.112899	-0.202229	-0.177183	-1.87152	-0.120981	0.1	-0.0055616	-0.220468	0.132782	0.0712748	-0.65577	-0.5526	-0.184317	1.79939	1.50588	-5.66263e-06	-0.0173684	-0.219029	-0.510483	0.0826163	1.95204	2.17525	-0.00482724	-0.00281183
